<mxfile host="app.diagrams.net" agent="Mozilla/5.0 (Windows NT 10.0; Win64; x64) AppleWebKit/537.36 (KHTML, like Gecko) Chrome/130.0.0.0 Safari/537.36" version="24.8.4">
  <diagram name="Страница — 1" id="6trBahUizQd-PeAr826S">
    <mxGraphModel dx="1434" dy="780" grid="1" gridSize="10" guides="1" tooltips="1" connect="1" arrows="1" fold="1" page="1" pageScale="1" pageWidth="1654" pageHeight="2336" math="0" shadow="0">
      <root>
        <mxCell id="0" />
        <mxCell id="1" parent="0" />
        <mxCell id="aix4GdQ3Vh70fGxyT67R-1" value="Клиент" style="swimlane;whiteSpace=wrap" vertex="1" parent="1">
          <mxGeometry x="164.5" y="128" width="280" height="722" as="geometry" />
        </mxCell>
        <mxCell id="aix4GdQ3Vh70fGxyT67R-2" value="" style="ellipse;shape=startState;fillColor=#000000;strokeColor=#ff0000;" vertex="1" parent="aix4GdQ3Vh70fGxyT67R-1">
          <mxGeometry x="100" y="40" width="30" height="30" as="geometry" />
        </mxCell>
        <mxCell id="aix4GdQ3Vh70fGxyT67R-3" value="" style="edgeStyle=elbowEdgeStyle;elbow=horizontal;verticalAlign=bottom;endArrow=open;endSize=8;strokeColor=#FF0000;endFill=1;rounded=0" edge="1" parent="aix4GdQ3Vh70fGxyT67R-1" source="aix4GdQ3Vh70fGxyT67R-2">
          <mxGeometry x="100" y="40" as="geometry">
            <mxPoint x="115.5" y="110" as="targetPoint" />
          </mxGeometry>
        </mxCell>
        <mxCell id="aix4GdQ3Vh70fGxyT67R-4" value="" style="ellipse;shape=endState;fillColor=#000000;strokeColor=#ff0000" vertex="1" parent="aix4GdQ3Vh70fGxyT67R-1">
          <mxGeometry x="110" y="622" width="30" height="30" as="geometry" />
        </mxCell>
        <mxCell id="aix4GdQ3Vh70fGxyT67R-5" style="edgeStyle=orthogonalEdgeStyle;rounded=0;orthogonalLoop=1;jettySize=auto;html=1;entryX=0.5;entryY=0;entryDx=0;entryDy=0;strokeColor=#FF0000;" edge="1" parent="aix4GdQ3Vh70fGxyT67R-1" source="aix4GdQ3Vh70fGxyT67R-7" target="aix4GdQ3Vh70fGxyT67R-10">
          <mxGeometry relative="1" as="geometry" />
        </mxCell>
        <mxCell id="aix4GdQ3Vh70fGxyT67R-6" value="Зарегистрирован" style="edgeLabel;html=1;align=center;verticalAlign=middle;resizable=0;points=[];" vertex="1" connectable="0" parent="aix4GdQ3Vh70fGxyT67R-5">
          <mxGeometry x="-0.2667" y="-2" relative="1" as="geometry">
            <mxPoint as="offset" />
          </mxGeometry>
        </mxCell>
        <mxCell id="aix4GdQ3Vh70fGxyT67R-7" value="Обращение в салон" style="rounded=0;whiteSpace=wrap;html=1;" vertex="1" parent="aix4GdQ3Vh70fGxyT67R-1">
          <mxGeometry x="55.5" y="112" width="120" height="60" as="geometry" />
        </mxCell>
        <mxCell id="aix4GdQ3Vh70fGxyT67R-10" value="" style="rhombus;whiteSpace=wrap;html=1;" vertex="1" parent="aix4GdQ3Vh70fGxyT67R-1">
          <mxGeometry x="95.75" y="212" width="39.5" height="28" as="geometry" />
        </mxCell>
        <mxCell id="aix4GdQ3Vh70fGxyT67R-11" value="Просмотр доступных авто" style="whiteSpace=wrap;html=1;" vertex="1" parent="aix4GdQ3Vh70fGxyT67R-1">
          <mxGeometry x="65" y="266" width="100" height="38" as="geometry" />
        </mxCell>
        <mxCell id="aix4GdQ3Vh70fGxyT67R-12" value="" style="edgeStyle=orthogonalEdgeStyle;rounded=0;orthogonalLoop=1;jettySize=auto;html=1;strokeColor=#FF0000;" edge="1" parent="aix4GdQ3Vh70fGxyT67R-1" source="aix4GdQ3Vh70fGxyT67R-10" target="aix4GdQ3Vh70fGxyT67R-11">
          <mxGeometry relative="1" as="geometry" />
        </mxCell>
        <mxCell id="aix4GdQ3Vh70fGxyT67R-114" value="" style="edgeStyle=orthogonalEdgeStyle;rounded=0;orthogonalLoop=1;jettySize=auto;html=1;strokeColor=#FF0000;entryX=0.5;entryY=0;entryDx=0;entryDy=0;exitX=0.5;exitY=1;exitDx=0;exitDy=0;" edge="1" parent="aix4GdQ3Vh70fGxyT67R-1" source="aix4GdQ3Vh70fGxyT67R-11">
          <mxGeometry relative="1" as="geometry">
            <mxPoint x="431.5" y="240" as="sourcePoint" />
            <mxPoint x="114.99000000000001" y="332" as="targetPoint" />
          </mxGeometry>
        </mxCell>
        <mxCell id="aix4GdQ3Vh70fGxyT67R-116" value="" style="rhombus;whiteSpace=wrap;html=1;" vertex="1" parent="aix4GdQ3Vh70fGxyT67R-1">
          <mxGeometry x="95.75" y="332" width="39.5" height="28" as="geometry" />
        </mxCell>
        <mxCell id="aix4GdQ3Vh70fGxyT67R-117" value="" style="edgeStyle=orthogonalEdgeStyle;rounded=0;orthogonalLoop=1;jettySize=auto;html=1;strokeColor=#FF0000;entryX=0;entryY=0.5;entryDx=0;entryDy=0;exitX=0;exitY=0.5;exitDx=0;exitDy=0;" edge="1" parent="aix4GdQ3Vh70fGxyT67R-1" source="aix4GdQ3Vh70fGxyT67R-116" target="aix4GdQ3Vh70fGxyT67R-4">
          <mxGeometry relative="1" as="geometry">
            <mxPoint x="35.5" y="417" as="sourcePoint" />
            <mxPoint x="271.5" y="402" as="targetPoint" />
            <Array as="points">
              <mxPoint x="36" y="346" />
              <mxPoint x="36" y="637" />
            </Array>
          </mxGeometry>
        </mxCell>
        <mxCell id="aix4GdQ3Vh70fGxyT67R-118" value="нет" style="edgeLabel;html=1;align=center;verticalAlign=middle;resizable=0;points=[];" vertex="1" connectable="0" parent="aix4GdQ3Vh70fGxyT67R-117">
          <mxGeometry x="0.4723" y="-2" relative="1" as="geometry">
            <mxPoint as="offset" />
          </mxGeometry>
        </mxCell>
        <mxCell id="aix4GdQ3Vh70fGxyT67R-115" value="Выбор авто" style="whiteSpace=wrap;html=1;" vertex="1" parent="aix4GdQ3Vh70fGxyT67R-1">
          <mxGeometry x="65.5" y="382" width="100" height="38" as="geometry" />
        </mxCell>
        <mxCell id="aix4GdQ3Vh70fGxyT67R-120" value="" style="edgeStyle=orthogonalEdgeStyle;rounded=0;orthogonalLoop=1;jettySize=auto;html=1;strokeColor=#FF0000;exitX=0.5;exitY=1;exitDx=0;exitDy=0;entryX=0.5;entryY=0;entryDx=0;entryDy=0;" edge="1" parent="aix4GdQ3Vh70fGxyT67R-1" source="aix4GdQ3Vh70fGxyT67R-116" target="aix4GdQ3Vh70fGxyT67R-115">
          <mxGeometry relative="1" as="geometry">
            <mxPoint x="371.99" y="382" as="sourcePoint" />
            <mxPoint x="184.99" y="382" as="targetPoint" />
          </mxGeometry>
        </mxCell>
        <mxCell id="aix4GdQ3Vh70fGxyT67R-121" value="" style="edgeStyle=orthogonalEdgeStyle;rounded=0;orthogonalLoop=1;jettySize=auto;html=1;strokeColor=#FF0000;exitX=0.5;exitY=1;exitDx=0;exitDy=0;entryX=0.5;entryY=0;entryDx=0;entryDy=0;" edge="1" parent="aix4GdQ3Vh70fGxyT67R-1" source="aix4GdQ3Vh70fGxyT67R-115" target="aix4GdQ3Vh70fGxyT67R-4">
          <mxGeometry relative="1" as="geometry">
            <mxPoint x="451.5" y="440" as="sourcePoint" />
            <mxPoint x="125.5" y="492" as="targetPoint" />
            <Array as="points">
              <mxPoint x="116" y="622" />
            </Array>
          </mxGeometry>
        </mxCell>
        <mxCell id="aix4GdQ3Vh70fGxyT67R-15" value="Сотрудник лизинга" style="swimlane;whiteSpace=wrap" vertex="1" parent="1">
          <mxGeometry x="444.5" y="128" width="275.5" height="722" as="geometry" />
        </mxCell>
        <mxCell id="aix4GdQ3Vh70fGxyT67R-105" value="Регистрация" style="whiteSpace=wrap;html=1;" vertex="1" parent="aix4GdQ3Vh70fGxyT67R-15">
          <mxGeometry x="91.88" y="192" width="100" height="38" as="geometry" />
        </mxCell>
        <mxCell id="aix4GdQ3Vh70fGxyT67R-32" value="Клиент" style="swimlane;whiteSpace=wrap" vertex="1" parent="1">
          <mxGeometry x="1090" y="128" width="280" height="732" as="geometry" />
        </mxCell>
        <mxCell id="aix4GdQ3Vh70fGxyT67R-33" style="edgeStyle=orthogonalEdgeStyle;rounded=0;orthogonalLoop=1;jettySize=auto;html=1;exitX=0.5;exitY=1;exitDx=0;exitDy=0;entryX=0.5;entryY=0;entryDx=0;entryDy=0;strokeColor=#FF0000;" edge="1" parent="aix4GdQ3Vh70fGxyT67R-32" source="aix4GdQ3Vh70fGxyT67R-34" target="aix4GdQ3Vh70fGxyT67R-35">
          <mxGeometry relative="1" as="geometry" />
        </mxCell>
        <mxCell id="aix4GdQ3Vh70fGxyT67R-34" value="Получение авто" style="whiteSpace=wrap;html=1;rounded=0;" vertex="1" parent="aix4GdQ3Vh70fGxyT67R-32">
          <mxGeometry x="78.99499999999989" y="612" width="120" height="60" as="geometry" />
        </mxCell>
        <mxCell id="aix4GdQ3Vh70fGxyT67R-35" value="" style="ellipse;shape=endState;fillColor=#000000;strokeColor=#ff0000" vertex="1" parent="aix4GdQ3Vh70fGxyT67R-32">
          <mxGeometry x="123.99000000000001" y="698" width="30" height="30" as="geometry" />
        </mxCell>
        <mxCell id="aix4GdQ3Vh70fGxyT67R-39" value="" style="ellipse;shape=startState;fillColor=#000000;strokeColor=#ff0000;" vertex="1" parent="aix4GdQ3Vh70fGxyT67R-32">
          <mxGeometry x="125" y="40" width="30" height="30" as="geometry" />
        </mxCell>
        <mxCell id="aix4GdQ3Vh70fGxyT67R-36" value="Сотрудник лизинга" style="swimlane;whiteSpace=wrap" vertex="1" parent="1">
          <mxGeometry x="1370" y="128" width="283.51" height="732" as="geometry" />
        </mxCell>
        <mxCell id="aix4GdQ3Vh70fGxyT67R-37" value="Оформление аренды" style="whiteSpace=wrap;html=1;" vertex="1" parent="aix4GdQ3Vh70fGxyT67R-36">
          <mxGeometry x="50" y="112" width="84.5" height="45" as="geometry" />
        </mxCell>
        <mxCell id="aix4GdQ3Vh70fGxyT67R-122" value="Расчет" style="whiteSpace=wrap;html=1;" vertex="1" parent="aix4GdQ3Vh70fGxyT67R-36">
          <mxGeometry x="50" y="192" width="84.5" height="44" as="geometry" />
        </mxCell>
        <mxCell id="aix4GdQ3Vh70fGxyT67R-123" value="" style="edgeStyle=orthogonalEdgeStyle;rounded=0;orthogonalLoop=1;jettySize=auto;html=1;strokeColor=#FF0000;exitX=0.5;exitY=1;exitDx=0;exitDy=0;entryX=0.5;entryY=0;entryDx=0;entryDy=0;" edge="1" parent="aix4GdQ3Vh70fGxyT67R-36" source="aix4GdQ3Vh70fGxyT67R-37" target="aix4GdQ3Vh70fGxyT67R-122">
          <mxGeometry relative="1" as="geometry">
            <mxPoint x="374.5" y="392" as="targetPoint" />
            <Array as="points">
              <mxPoint x="92.5" y="172" />
              <mxPoint x="92.5" y="172" />
            </Array>
            <mxPoint x="114.5" y="282" as="sourcePoint" />
          </mxGeometry>
        </mxCell>
        <mxCell id="aix4GdQ3Vh70fGxyT67R-124" value="" style="rhombus;whiteSpace=wrap;html=1;" vertex="1" parent="aix4GdQ3Vh70fGxyT67R-36">
          <mxGeometry x="73.37999999999988" y="272" width="37.75" height="22" as="geometry" />
        </mxCell>
        <mxCell id="aix4GdQ3Vh70fGxyT67R-126" value="" style="edgeStyle=orthogonalEdgeStyle;rounded=0;orthogonalLoop=1;jettySize=auto;html=1;strokeColor=#FF0000;entryX=0.5;entryY=0;entryDx=0;entryDy=0;exitX=0.5;exitY=1;exitDx=0;exitDy=0;" edge="1" parent="aix4GdQ3Vh70fGxyT67R-36" source="aix4GdQ3Vh70fGxyT67R-122" target="aix4GdQ3Vh70fGxyT67R-124">
          <mxGeometry relative="1" as="geometry">
            <mxPoint x="449.25" y="308" as="targetPoint" />
            <Array as="points">
              <mxPoint x="92.5" y="252" />
              <mxPoint x="92.5" y="252" />
            </Array>
            <mxPoint x="124.5" y="258" as="sourcePoint" />
          </mxGeometry>
        </mxCell>
        <mxCell id="aix4GdQ3Vh70fGxyT67R-127" value="Прошла оплата?" style="edgeLabel;html=1;align=center;verticalAlign=middle;resizable=0;points=[];" vertex="1" connectable="0" parent="aix4GdQ3Vh70fGxyT67R-126">
          <mxGeometry x="-0.2774" y="2" relative="1" as="geometry">
            <mxPoint as="offset" />
          </mxGeometry>
        </mxCell>
        <mxCell id="aix4GdQ3Vh70fGxyT67R-128" value="Отправить на повторный расчет" style="whiteSpace=wrap;html=1;" vertex="1" parent="aix4GdQ3Vh70fGxyT67R-36">
          <mxGeometry x="170" y="213" width="85.51" height="59" as="geometry" />
        </mxCell>
        <mxCell id="aix4GdQ3Vh70fGxyT67R-129" style="edgeStyle=orthogonalEdgeStyle;rounded=0;orthogonalLoop=1;jettySize=auto;html=1;entryX=0;entryY=0.5;entryDx=0;entryDy=0;strokeColor=#FF0000;exitX=1;exitY=0.5;exitDx=0;exitDy=0;" edge="1" parent="aix4GdQ3Vh70fGxyT67R-36" source="aix4GdQ3Vh70fGxyT67R-124" target="aix4GdQ3Vh70fGxyT67R-128">
          <mxGeometry relative="1" as="geometry">
            <mxPoint x="118.38000000000011" y="302" as="sourcePoint" />
            <mxPoint x="201.3800000000001" y="302" as="targetPoint" />
            <Array as="points">
              <mxPoint x="119" y="283" />
              <mxPoint x="119" y="282" />
              <mxPoint x="150" y="282" />
              <mxPoint x="150" y="243" />
            </Array>
          </mxGeometry>
        </mxCell>
        <mxCell id="aix4GdQ3Vh70fGxyT67R-130" value="Нет" style="edgeLabel;html=1;align=center;verticalAlign=middle;resizable=0;points=[];" vertex="1" connectable="0" parent="aix4GdQ3Vh70fGxyT67R-129">
          <mxGeometry x="-0.2713" y="2" relative="1" as="geometry">
            <mxPoint as="offset" />
          </mxGeometry>
        </mxCell>
        <mxCell id="aix4GdQ3Vh70fGxyT67R-131" style="edgeStyle=orthogonalEdgeStyle;rounded=0;orthogonalLoop=1;jettySize=auto;html=1;entryX=1;entryY=0.5;entryDx=0;entryDy=0;strokeColor=#FF0000;exitX=0.5;exitY=0;exitDx=0;exitDy=0;" edge="1" parent="aix4GdQ3Vh70fGxyT67R-36" source="aix4GdQ3Vh70fGxyT67R-128" target="aix4GdQ3Vh70fGxyT67R-122">
          <mxGeometry relative="1" as="geometry">
            <mxPoint x="220" y="203" as="sourcePoint" />
            <mxPoint x="160" y="132" as="targetPoint" />
          </mxGeometry>
        </mxCell>
        <mxCell id="aix4GdQ3Vh70fGxyT67R-45" value="Механик" style="swimlane;whiteSpace=wrap" vertex="1" parent="1">
          <mxGeometry x="1653.51" y="128" width="284.5" height="732" as="geometry" />
        </mxCell>
        <mxCell id="aix4GdQ3Vh70fGxyT67R-132" value="Взять ключи" style="whiteSpace=wrap;html=1;" vertex="1" parent="aix4GdQ3Vh70fGxyT67R-45">
          <mxGeometry x="100" y="344" width="84.5" height="44" as="geometry" />
        </mxCell>
        <mxCell id="aix4GdQ3Vh70fGxyT67R-133" value="Взять документы" style="whiteSpace=wrap;html=1;" vertex="1" parent="aix4GdQ3Vh70fGxyT67R-45">
          <mxGeometry x="100" y="409.99" width="84.5" height="44" as="geometry" />
        </mxCell>
        <mxCell id="aix4GdQ3Vh70fGxyT67R-134" value="Отдать клиенту" style="whiteSpace=wrap;html=1;" vertex="1" parent="aix4GdQ3Vh70fGxyT67R-45">
          <mxGeometry x="100" y="482" width="84.5" height="44" as="geometry" />
        </mxCell>
        <mxCell id="aix4GdQ3Vh70fGxyT67R-136" style="edgeStyle=orthogonalEdgeStyle;rounded=0;orthogonalLoop=1;jettySize=auto;html=1;exitX=0.5;exitY=1;exitDx=0;exitDy=0;entryX=0.5;entryY=0;entryDx=0;entryDy=0;strokeColor=#FF0000;" edge="1" parent="aix4GdQ3Vh70fGxyT67R-45" source="aix4GdQ3Vh70fGxyT67R-132" target="aix4GdQ3Vh70fGxyT67R-133">
          <mxGeometry relative="1" as="geometry">
            <mxPoint x="16.49000000000001" y="182" as="sourcePoint" />
            <mxPoint x="248.49" y="224" as="targetPoint" />
          </mxGeometry>
        </mxCell>
        <mxCell id="aix4GdQ3Vh70fGxyT67R-137" style="edgeStyle=orthogonalEdgeStyle;rounded=0;orthogonalLoop=1;jettySize=auto;html=1;exitX=0.5;exitY=1;exitDx=0;exitDy=0;entryX=0.5;entryY=0;entryDx=0;entryDy=0;strokeColor=#FF0000;" edge="1" parent="aix4GdQ3Vh70fGxyT67R-45" source="aix4GdQ3Vh70fGxyT67R-133" target="aix4GdQ3Vh70fGxyT67R-134">
          <mxGeometry relative="1" as="geometry">
            <mxPoint x="16.49000000000001" y="192" as="sourcePoint" />
            <mxPoint x="248.49" y="234" as="targetPoint" />
          </mxGeometry>
        </mxCell>
        <mxCell id="aix4GdQ3Vh70fGxyT67R-58" value="&lt;font style=&quot;font-size: 18px&quot;&gt;Процесс выдачи авто&lt;/font&gt;" style="text;html=1;strokeColor=none;fillColor=none;align=center;verticalAlign=middle;whiteSpace=wrap;rounded=0;" vertex="1" parent="1">
          <mxGeometry x="1095.5" y="90" width="830" height="20" as="geometry" />
        </mxCell>
        <mxCell id="aix4GdQ3Vh70fGxyT67R-66" value="Покупатель" style="swimlane;whiteSpace=wrap" vertex="1" parent="1">
          <mxGeometry x="2270" y="128" width="280" height="732" as="geometry" />
        </mxCell>
        <mxCell id="aix4GdQ3Vh70fGxyT67R-67" value="" style="ellipse;shape=endState;fillColor=#000000;strokeColor=#ff0000" vertex="1" parent="aix4GdQ3Vh70fGxyT67R-66">
          <mxGeometry x="123.99000000000001" y="698" width="30" height="30" as="geometry" />
        </mxCell>
        <mxCell id="aix4GdQ3Vh70fGxyT67R-68" value="" style="ellipse;shape=startState;fillColor=#000000;strokeColor=#ff0000;" vertex="1" parent="aix4GdQ3Vh70fGxyT67R-66">
          <mxGeometry x="123.99000000000001" y="42" width="30" height="30" as="geometry" />
        </mxCell>
        <mxCell id="aix4GdQ3Vh70fGxyT67R-69" value="Возврат авто" style="whiteSpace=wrap;html=1;" vertex="1" parent="aix4GdQ3Vh70fGxyT67R-66">
          <mxGeometry x="96.74" y="102" width="84.5" height="45" as="geometry" />
        </mxCell>
        <mxCell id="aix4GdQ3Vh70fGxyT67R-70" style="edgeStyle=orthogonalEdgeStyle;rounded=0;orthogonalLoop=1;jettySize=auto;html=1;exitX=0.5;exitY=1;exitDx=0;exitDy=0;entryX=0.5;entryY=0;entryDx=0;entryDy=0;strokeColor=#FF0000;" edge="1" parent="aix4GdQ3Vh70fGxyT67R-66" source="aix4GdQ3Vh70fGxyT67R-68" target="aix4GdQ3Vh70fGxyT67R-69">
          <mxGeometry relative="1" as="geometry" />
        </mxCell>
        <mxCell id="aix4GdQ3Vh70fGxyT67R-144" value="Возврат залога" style="whiteSpace=wrap;html=1;" vertex="1" parent="aix4GdQ3Vh70fGxyT67R-66">
          <mxGeometry x="78.99" y="551.995" width="120" height="60" as="geometry" />
        </mxCell>
        <mxCell id="aix4GdQ3Vh70fGxyT67R-147" value="" style="edgeStyle=orthogonalEdgeStyle;rounded=0;orthogonalLoop=1;jettySize=auto;html=1;strokeColor=#FF0000;exitX=0.5;exitY=1;exitDx=0;exitDy=0;entryX=0.5;entryY=0;entryDx=0;entryDy=0;" edge="1" parent="aix4GdQ3Vh70fGxyT67R-66" source="aix4GdQ3Vh70fGxyT67R-144" target="aix4GdQ3Vh70fGxyT67R-67">
          <mxGeometry relative="1" as="geometry">
            <mxPoint x="240" y="422" as="sourcePoint" />
            <mxPoint x="240" y="650" as="targetPoint" />
            <Array as="points">
              <mxPoint x="139" y="652" />
              <mxPoint x="139" y="652" />
            </Array>
          </mxGeometry>
        </mxCell>
        <mxCell id="aix4GdQ3Vh70fGxyT67R-71" value="Механик" style="swimlane;whiteSpace=wrap" vertex="1" parent="1">
          <mxGeometry x="2550" y="128" width="275.5" height="732" as="geometry" />
        </mxCell>
        <mxCell id="aix4GdQ3Vh70fGxyT67R-72" value="Получение ключей" style="whiteSpace=wrap;html=1;" vertex="1" parent="aix4GdQ3Vh70fGxyT67R-71">
          <mxGeometry x="60.000000000000014" y="94.5" width="120" height="60" as="geometry" />
        </mxCell>
        <mxCell id="aix4GdQ3Vh70fGxyT67R-73" value="Получение документов" style="whiteSpace=wrap;html=1;" vertex="1" parent="aix4GdQ3Vh70fGxyT67R-71">
          <mxGeometry x="60" y="188.5" width="120" height="60" as="geometry" />
        </mxCell>
        <mxCell id="aix4GdQ3Vh70fGxyT67R-74" value="" style="edgeStyle=orthogonalEdgeStyle;rounded=0;orthogonalLoop=1;jettySize=auto;html=1;strokeColor=#FF0000;" edge="1" parent="aix4GdQ3Vh70fGxyT67R-71" source="aix4GdQ3Vh70fGxyT67R-72" target="aix4GdQ3Vh70fGxyT67R-73">
          <mxGeometry relative="1" as="geometry" />
        </mxCell>
        <mxCell id="aix4GdQ3Vh70fGxyT67R-77" value="Осмотр авто" style="whiteSpace=wrap;html=1;" vertex="1" parent="aix4GdQ3Vh70fGxyT67R-71">
          <mxGeometry x="60" y="281.995" width="120" height="60" as="geometry" />
        </mxCell>
        <mxCell id="aix4GdQ3Vh70fGxyT67R-79" value="Закрытие обращения" style="whiteSpace=wrap;html=1;" vertex="1" parent="aix4GdQ3Vh70fGxyT67R-71">
          <mxGeometry x="90" y="622" width="80" height="38" as="geometry" />
        </mxCell>
        <mxCell id="aix4GdQ3Vh70fGxyT67R-80" value="" style="edgeStyle=orthogonalEdgeStyle;rounded=0;orthogonalLoop=1;jettySize=auto;html=1;strokeColor=#FF0000;exitX=0.5;exitY=1;exitDx=0;exitDy=0;" edge="1" parent="aix4GdQ3Vh70fGxyT67R-71" source="aix4GdQ3Vh70fGxyT67R-141" target="aix4GdQ3Vh70fGxyT67R-79">
          <mxGeometry relative="1" as="geometry">
            <mxPoint x="130" y="595.99" as="sourcePoint" />
            <Array as="points">
              <mxPoint x="120" y="572" />
              <mxPoint x="120" y="572" />
            </Array>
          </mxGeometry>
        </mxCell>
        <mxCell id="aix4GdQ3Vh70fGxyT67R-139" value="" style="edgeStyle=orthogonalEdgeStyle;rounded=0;orthogonalLoop=1;jettySize=auto;html=1;strokeColor=#FF0000;exitX=0.5;exitY=1;exitDx=0;exitDy=0;entryX=0.5;entryY=0;entryDx=0;entryDy=0;" edge="1" parent="aix4GdQ3Vh70fGxyT67R-71" source="aix4GdQ3Vh70fGxyT67R-73" target="aix4GdQ3Vh70fGxyT67R-77">
          <mxGeometry relative="1" as="geometry">
            <mxPoint x="-89" y="135" as="sourcePoint" />
            <mxPoint x="70" y="135" as="targetPoint" />
          </mxGeometry>
        </mxCell>
        <mxCell id="aix4GdQ3Vh70fGxyT67R-141" value="" style="rhombus;whiteSpace=wrap;html=1;" vertex="1" parent="aix4GdQ3Vh70fGxyT67R-71">
          <mxGeometry x="101.13" y="372" width="37.75" height="22" as="geometry" />
        </mxCell>
        <mxCell id="aix4GdQ3Vh70fGxyT67R-142" value="" style="edgeStyle=orthogonalEdgeStyle;rounded=0;orthogonalLoop=1;jettySize=auto;html=1;strokeColor=#FF0000;exitX=0.5;exitY=1;exitDx=0;exitDy=0;entryX=0.5;entryY=0;entryDx=0;entryDy=0;" edge="1" parent="aix4GdQ3Vh70fGxyT67R-71" source="aix4GdQ3Vh70fGxyT67R-77" target="aix4GdQ3Vh70fGxyT67R-141">
          <mxGeometry relative="1" as="geometry">
            <mxPoint x="-89" y="135" as="sourcePoint" />
            <mxPoint x="70" y="135" as="targetPoint" />
          </mxGeometry>
        </mxCell>
        <mxCell id="aix4GdQ3Vh70fGxyT67R-143" value="В порядке?" style="edgeLabel;html=1;align=center;verticalAlign=middle;resizable=0;points=[];" vertex="1" connectable="0" parent="aix4GdQ3Vh70fGxyT67R-142">
          <mxGeometry x="-0.1998" y="-1" relative="1" as="geometry">
            <mxPoint as="offset" />
          </mxGeometry>
        </mxCell>
        <mxCell id="aix4GdQ3Vh70fGxyT67R-83" value="&lt;font style=&quot;font-size: 18px&quot;&gt;Процесс возврата авто&lt;/font&gt;" style="text;html=1;strokeColor=none;fillColor=none;align=center;verticalAlign=middle;whiteSpace=wrap;rounded=0;" vertex="1" parent="1">
          <mxGeometry x="2275.5" y="90" width="830" height="20" as="geometry" />
        </mxCell>
        <mxCell id="aix4GdQ3Vh70fGxyT67R-91" value="" style="edgeStyle=orthogonalEdgeStyle;rounded=0;orthogonalLoop=1;jettySize=auto;html=1;strokeColor=#FF0000;" edge="1" parent="1" source="aix4GdQ3Vh70fGxyT67R-69" target="aix4GdQ3Vh70fGxyT67R-72">
          <mxGeometry relative="1" as="geometry" />
        </mxCell>
        <mxCell id="aix4GdQ3Vh70fGxyT67R-103" style="edgeStyle=orthogonalEdgeStyle;rounded=0;orthogonalLoop=1;jettySize=auto;html=1;entryX=1;entryY=0.5;entryDx=0;entryDy=0;strokeColor=#FF0000;" edge="1" parent="1" source="aix4GdQ3Vh70fGxyT67R-79" target="aix4GdQ3Vh70fGxyT67R-144">
          <mxGeometry relative="1" as="geometry" />
        </mxCell>
        <mxCell id="aix4GdQ3Vh70fGxyT67R-104" value="&lt;span style=&quot;font-size: 18px;&quot;&gt;Процесс регистрации и выбора авто&lt;/span&gt;" style="text;html=1;strokeColor=none;fillColor=none;align=center;verticalAlign=middle;whiteSpace=wrap;rounded=0;" vertex="1" parent="1">
          <mxGeometry x="30" y="90" width="830" height="20" as="geometry" />
        </mxCell>
        <mxCell id="aix4GdQ3Vh70fGxyT67R-109" value="" style="edgeStyle=orthogonalEdgeStyle;rounded=0;orthogonalLoop=1;jettySize=auto;html=1;strokeColor=#FF0000;entryX=1;entryY=0.5;entryDx=0;entryDy=0;exitX=0.5;exitY=1;exitDx=0;exitDy=0;" edge="1" parent="1" source="aix4GdQ3Vh70fGxyT67R-105" target="aix4GdQ3Vh70fGxyT67R-11">
          <mxGeometry relative="1" as="geometry">
            <mxPoint x="536.38" y="338.5" as="sourcePoint" />
            <mxPoint x="349.38" y="338.5" as="targetPoint" />
          </mxGeometry>
        </mxCell>
        <mxCell id="aix4GdQ3Vh70fGxyT67R-111" value="" style="edgeStyle=orthogonalEdgeStyle;rounded=0;orthogonalLoop=1;jettySize=auto;html=1;strokeColor=#FF0000;entryX=0;entryY=0.5;entryDx=0;entryDy=0;exitX=1;exitY=0.5;exitDx=0;exitDy=0;" edge="1" parent="1" source="aix4GdQ3Vh70fGxyT67R-10" target="aix4GdQ3Vh70fGxyT67R-105">
          <mxGeometry relative="1" as="geometry">
            <mxPoint x="636.38" y="260" as="sourcePoint" />
            <mxPoint x="380.38" y="315" as="targetPoint" />
            <Array as="points">
              <mxPoint x="300" y="339" />
            </Array>
          </mxGeometry>
        </mxCell>
        <mxCell id="aix4GdQ3Vh70fGxyT67R-112" value="нет" style="edgeLabel;html=1;align=center;verticalAlign=middle;resizable=0;points=[];" vertex="1" connectable="0" parent="aix4GdQ3Vh70fGxyT67R-111">
          <mxGeometry x="0.4723" y="-2" relative="1" as="geometry">
            <mxPoint as="offset" />
          </mxGeometry>
        </mxCell>
        <mxCell id="aix4GdQ3Vh70fGxyT67R-38" style="edgeStyle=orthogonalEdgeStyle;rounded=0;orthogonalLoop=1;jettySize=auto;html=1;exitX=0.5;exitY=1;exitDx=0;exitDy=0;entryX=0.5;entryY=0;entryDx=0;entryDy=0;strokeColor=#FF0000;" edge="1" parent="1" source="aix4GdQ3Vh70fGxyT67R-39" target="aix4GdQ3Vh70fGxyT67R-37">
          <mxGeometry relative="1" as="geometry" />
        </mxCell>
        <mxCell id="aix4GdQ3Vh70fGxyT67R-135" style="edgeStyle=orthogonalEdgeStyle;rounded=0;orthogonalLoop=1;jettySize=auto;html=1;exitX=0.5;exitY=1;exitDx=0;exitDy=0;entryX=0.5;entryY=0;entryDx=0;entryDy=0;strokeColor=#FF0000;" edge="1" parent="1" source="aix4GdQ3Vh70fGxyT67R-124" target="aix4GdQ3Vh70fGxyT67R-132">
          <mxGeometry relative="1" as="geometry">
            <mxPoint x="1670" y="280" as="sourcePoint" />
            <mxPoint x="1902" y="322" as="targetPoint" />
          </mxGeometry>
        </mxCell>
        <mxCell id="aix4GdQ3Vh70fGxyT67R-138" style="edgeStyle=orthogonalEdgeStyle;rounded=0;orthogonalLoop=1;jettySize=auto;html=1;exitX=0.5;exitY=1;exitDx=0;exitDy=0;entryX=0.5;entryY=0;entryDx=0;entryDy=0;strokeColor=#FF0000;" edge="1" parent="1" source="aix4GdQ3Vh70fGxyT67R-134" target="aix4GdQ3Vh70fGxyT67R-34">
          <mxGeometry relative="1" as="geometry">
            <mxPoint x="1690" y="720" as="sourcePoint" />
            <mxPoint x="1922" y="762" as="targetPoint" />
          </mxGeometry>
        </mxCell>
        <mxCell id="aix4GdQ3Vh70fGxyT67R-145" value="" style="edgeStyle=orthogonalEdgeStyle;rounded=0;orthogonalLoop=1;jettySize=auto;html=1;strokeColor=#FF0000;exitX=0;exitY=0.5;exitDx=0;exitDy=0;entryX=0;entryY=0.5;entryDx=0;entryDy=0;" edge="1" parent="1" source="aix4GdQ3Vh70fGxyT67R-141" target="aix4GdQ3Vh70fGxyT67R-67">
          <mxGeometry relative="1" as="geometry">
            <mxPoint x="2610" y="510" as="sourcePoint" />
            <mxPoint x="2610" y="738" as="targetPoint" />
            <Array as="points">
              <mxPoint x="2330" y="511" />
              <mxPoint x="2330" y="841" />
            </Array>
          </mxGeometry>
        </mxCell>
        <mxCell id="aix4GdQ3Vh70fGxyT67R-146" value="нет" style="edgeLabel;html=1;align=center;verticalAlign=middle;resizable=0;points=[];" vertex="1" connectable="0" parent="aix4GdQ3Vh70fGxyT67R-145">
          <mxGeometry x="-0.65" y="1" relative="1" as="geometry">
            <mxPoint as="offset" />
          </mxGeometry>
        </mxCell>
      </root>
    </mxGraphModel>
  </diagram>
</mxfile>
